<mxfile host="Electron" agent="Mozilla/5.0 (Windows NT 10.0; Win64; x64) AppleWebKit/537.36 (KHTML, like Gecko) draw.io/24.7.17 Chrome/128.0.6613.36 Electron/32.0.1 Safari/537.36" version="24.7.17">
  <diagram name="Page-1" id="ZfM87qixJmkWnpkihZXh">
    <mxGraphModel dx="1434" dy="1286" grid="0" gridSize="10" guides="1" tooltips="1" connect="1" arrows="1" fold="1" page="0" pageScale="1" pageWidth="827" pageHeight="1169" math="0" shadow="0">
      <root>
        <mxCell id="0" />
        <mxCell id="1" parent="0" />
        <mxCell id="Xj7tkq4aOQaog6A-EKB1-1" value="" style="rounded=0;whiteSpace=wrap;html=1;" parent="1" vertex="1">
          <mxGeometry x="352" y="-50" width="960" height="838" as="geometry" />
        </mxCell>
        <mxCell id="Xj7tkq4aOQaog6A-EKB1-15" style="edgeStyle=none;curved=1;rounded=0;orthogonalLoop=1;jettySize=auto;html=1;exitX=0;exitY=0.5;exitDx=0;exitDy=0;fontSize=12;startSize=8;endSize=8;" parent="1" edge="1">
          <mxGeometry relative="1" as="geometry">
            <mxPoint x="524" y="174.5" as="sourcePoint" />
            <mxPoint x="524" y="174.5" as="targetPoint" />
          </mxGeometry>
        </mxCell>
        <mxCell id="Xj7tkq4aOQaog6A-EKB1-88" style="edgeStyle=none;curved=1;rounded=0;orthogonalLoop=1;jettySize=auto;html=1;entryX=0.5;entryY=1;entryDx=0;entryDy=0;fontSize=12;startSize=8;endSize=8;" parent="1" source="Xj7tkq4aOQaog6A-EKB1-21" target="Xj7tkq4aOQaog6A-EKB1-86" edge="1">
          <mxGeometry relative="1" as="geometry" />
        </mxCell>
        <mxCell id="Xj7tkq4aOQaog6A-EKB1-21" value="&lt;span style=&quot;font-size: 40px;&quot;&gt;_ _ _ _ _ _&lt;/span&gt;" style="rounded=0;whiteSpace=wrap;html=1;" parent="1" vertex="1">
          <mxGeometry x="801" y="77" width="484" height="60" as="geometry" />
        </mxCell>
        <mxCell id="Xj7tkq4aOQaog6A-EKB1-23" value="&lt;font style=&quot;font-size: 44px;&quot;&gt;Le pendu&lt;/font&gt;" style="text;html=1;align=center;verticalAlign=middle;whiteSpace=wrap;rounded=0;fontSize=16;" parent="1" vertex="1">
          <mxGeometry x="708" y="-32" width="234" height="30" as="geometry" />
        </mxCell>
        <mxCell id="Xj7tkq4aOQaog6A-EKB1-30" value="&lt;font style=&quot;font-size: 19px;&quot;&gt;a&lt;/font&gt;" style="shape=hexagon;perimeter=hexagonPerimeter2;whiteSpace=wrap;html=1;fixedSize=1;" parent="1" vertex="1">
          <mxGeometry x="807" y="179" width="120" height="26" as="geometry" />
        </mxCell>
        <mxCell id="Xj7tkq4aOQaog6A-EKB1-31" value="" style="shape=hexagon;perimeter=hexagonPerimeter2;whiteSpace=wrap;html=1;fixedSize=1;" parent="1" vertex="1">
          <mxGeometry x="16" y="-20" width="101" height="26" as="geometry" />
        </mxCell>
        <mxCell id="Xj7tkq4aOQaog6A-EKB1-32" value="Zone de saisie" style="text;html=1;align=center;verticalAlign=middle;whiteSpace=wrap;rounded=0;fontSize=16;" parent="1" vertex="1">
          <mxGeometry x="137" y="-20" width="125" height="30" as="geometry" />
        </mxCell>
        <mxCell id="Xj7tkq4aOQaog6A-EKB1-34" value="Bouton" style="text;html=1;align=center;verticalAlign=middle;whiteSpace=wrap;rounded=0;fontSize=16;" parent="1" vertex="1">
          <mxGeometry x="137" y="42.5" width="60" height="30" as="geometry" />
        </mxCell>
        <mxCell id="Xj7tkq4aOQaog6A-EKB1-45" value="&lt;font style=&quot;font-size: 17px;&quot;&gt;Valider&lt;/font&gt;" style="shape=step;perimeter=stepPerimeter;whiteSpace=wrap;html=1;fixedSize=1;" parent="1" vertex="1">
          <mxGeometry x="945" y="179" width="83" height="26" as="geometry" />
        </mxCell>
        <mxCell id="Xj7tkq4aOQaog6A-EKB1-47" value="" style="shape=step;perimeter=stepPerimeter;whiteSpace=wrap;html=1;fixedSize=1;" parent="1" vertex="1">
          <mxGeometry x="30" y="46.5" width="83" height="26" as="geometry" />
        </mxCell>
        <mxCell id="Xj7tkq4aOQaog6A-EKB1-55" value="Nombre de faute : 0" style="text;html=1;align=center;verticalAlign=middle;whiteSpace=wrap;rounded=0;fontSize=16;" parent="1" vertex="1">
          <mxGeometry x="1046" y="178" width="164" height="30" as="geometry" />
        </mxCell>
        <mxCell id="Xj7tkq4aOQaog6A-EKB1-56" value="" style="rounded=0;whiteSpace=wrap;html=1;" parent="1" vertex="1">
          <mxGeometry x="391" y="233" width="254" height="377" as="geometry" />
        </mxCell>
        <mxCell id="Xj7tkq4aOQaog6A-EKB1-57" value="&lt;font style=&quot;font-size: 23px;&quot;&gt;Historique de saisie&amp;nbsp;&lt;/font&gt;" style="text;html=1;align=center;verticalAlign=middle;whiteSpace=wrap;rounded=0;fontSize=16;" parent="1" vertex="1">
          <mxGeometry x="417" y="257" width="186" height="30" as="geometry" />
        </mxCell>
        <mxCell id="Xj7tkq4aOQaog6A-EKB1-62" value="" style="rounded=0;whiteSpace=wrap;html=1;" parent="1" vertex="1">
          <mxGeometry x="377" y="17" width="356" height="190" as="geometry" />
        </mxCell>
        <mxCell id="Xj7tkq4aOQaog6A-EKB1-63" value="&lt;h1 style=&quot;margin-top: 0px;&quot;&gt;&lt;span style=&quot;font-weight: normal;&quot;&gt;Regle du jeu&lt;/span&gt;&lt;/h1&gt;&lt;div&gt;aaaaaaaaaaaaaaaaaaaaaaaaaaaaaaaaaaaaaaaaaaaaaaaaa&lt;/div&gt;&lt;div&gt;aaaaaaaaaaaaaaaaaaaaaaaaaaa&lt;/div&gt;&lt;div&gt;aaaaaaaaaaaaaaaaaaaaaa&lt;/div&gt;&lt;div&gt;aaaaaaaaaaaaaaaaaaaa&lt;/div&gt;&lt;div&gt;aaaaaaaaaaaaaaaaaaaaaaaaaaaaaaaaa&lt;/div&gt;&lt;div&gt;aaaaaaaaaaaaaaaaaaaaa&lt;/div&gt;&lt;div&gt;aaaaaaaaaaaaaaaaaaaaaaaaaaaaaaaaa&lt;/div&gt;&lt;div&gt;&lt;br&gt;&lt;/div&gt;&lt;div&gt;&lt;br&gt;&lt;/div&gt;" style="text;html=1;whiteSpace=wrap;overflow=hidden;rounded=0;" parent="1" vertex="1">
          <mxGeometry x="391" y="28" width="342" height="180" as="geometry" />
        </mxCell>
        <mxCell id="Xj7tkq4aOQaog6A-EKB1-73" style="edgeStyle=none;curved=1;rounded=0;orthogonalLoop=1;jettySize=auto;html=1;entryX=0;entryY=0.5;entryDx=0;entryDy=0;fontSize=12;startSize=8;endSize=8;" parent="1" target="Xj7tkq4aOQaog6A-EKB1-72" edge="1">
          <mxGeometry relative="1" as="geometry">
            <mxPoint x="1285" y="453" as="sourcePoint" />
          </mxGeometry>
        </mxCell>
        <mxCell id="Xj7tkq4aOQaog6A-EKB1-74" value="&lt;font style=&quot;font-size: 22px;&quot;&gt;Si le jouer a gagner&lt;/font&gt;" style="edgeLabel;html=1;align=center;verticalAlign=middle;resizable=0;points=[];fontSize=12;" parent="Xj7tkq4aOQaog6A-EKB1-73" vertex="1" connectable="0">
          <mxGeometry x="-0.3479" y="-1" relative="1" as="geometry">
            <mxPoint x="46" y="-24" as="offset" />
          </mxGeometry>
        </mxCell>
        <mxCell id="Xj7tkq4aOQaog6A-EKB1-82" style="edgeStyle=none;curved=1;rounded=0;orthogonalLoop=1;jettySize=auto;html=1;entryX=0;entryY=0.5;entryDx=0;entryDy=0;fontSize=12;startSize=8;endSize=8;" parent="1" source="Xj7tkq4aOQaog6A-EKB1-71" target="Xj7tkq4aOQaog6A-EKB1-81" edge="1">
          <mxGeometry relative="1" as="geometry" />
        </mxCell>
        <mxCell id="Xj7tkq4aOQaog6A-EKB1-71" value="" style="rounded=0;whiteSpace=wrap;html=1;" parent="1" vertex="1">
          <mxGeometry x="679" y="363" width="606" height="165" as="geometry" />
        </mxCell>
        <mxCell id="Xj7tkq4aOQaog6A-EKB1-72" value="&lt;span style=&quot;font-size: 64px;&quot;&gt;GAGNER&lt;/span&gt;&lt;div&gt;&lt;font style=&quot;font-size: 17px;&quot;&gt;LE MOT ETAI BIEN .....&lt;/font&gt;&lt;/div&gt;" style="rounded=0;whiteSpace=wrap;html=1;" parent="1" vertex="1">
          <mxGeometry x="1606" y="341" width="606" height="161" as="geometry" />
        </mxCell>
        <mxCell id="Xj7tkq4aOQaog6A-EKB1-93" style="edgeStyle=none;curved=1;rounded=0;orthogonalLoop=1;jettySize=auto;html=1;entryX=0.25;entryY=1;entryDx=0;entryDy=0;fontSize=12;startSize=8;endSize=8;" parent="1" source="Xj7tkq4aOQaog6A-EKB1-75" target="Xj7tkq4aOQaog6A-EKB1-91" edge="1">
          <mxGeometry relative="1" as="geometry" />
        </mxCell>
        <mxCell id="Xj7tkq4aOQaog6A-EKB1-75" value="" style="rounded=0;whiteSpace=wrap;html=1;" parent="1" vertex="1">
          <mxGeometry x="676" y="237" width="604" height="104" as="geometry" />
        </mxCell>
        <mxCell id="Xj7tkq4aOQaog6A-EKB1-76" value="" style="rounded=0;whiteSpace=wrap;html=1;" parent="1" vertex="1">
          <mxGeometry x="20" y="107" width="120" height="60" as="geometry" />
        </mxCell>
        <mxCell id="Xj7tkq4aOQaog6A-EKB1-77" value="Libeller" style="text;html=1;align=center;verticalAlign=middle;whiteSpace=wrap;rounded=0;fontSize=16;" parent="1" vertex="1">
          <mxGeometry x="148" y="117" width="106" height="30" as="geometry" />
        </mxCell>
        <mxCell id="Xj7tkq4aOQaog6A-EKB1-79" value="&lt;font style=&quot;font-size: 26px;&quot;&gt;N affiche que les lettre saisie qui sont faux&lt;/font&gt;" style="rounded=0;whiteSpace=wrap;html=1;" parent="1" vertex="1">
          <mxGeometry x="471" y="871" width="330" height="146" as="geometry" />
        </mxCell>
        <mxCell id="Xj7tkq4aOQaog6A-EKB1-81" value="&lt;div&gt;&lt;font style=&quot;font-size: 64px;&quot;&gt;PERDUE&lt;/font&gt;&lt;/div&gt;&lt;div&gt;&lt;font style=&quot;font-size: 17px;&quot;&gt;LE MOT ETAI&amp;nbsp; .....&lt;/font&gt;&lt;/div&gt;" style="rounded=0;whiteSpace=wrap;html=1;" parent="1" vertex="1">
          <mxGeometry x="1701" y="568" width="606" height="161" as="geometry" />
        </mxCell>
        <mxCell id="Xj7tkq4aOQaog6A-EKB1-84" value="&lt;font style=&quot;font-size: 22px;&quot;&gt;Si le joueur perd&lt;/font&gt;" style="text;html=1;align=center;verticalAlign=middle;whiteSpace=wrap;rounded=0;fontSize=16;" parent="1" vertex="1">
          <mxGeometry x="1456" y="551" width="200" height="30" as="geometry" />
        </mxCell>
        <mxCell id="Xj7tkq4aOQaog6A-EKB1-86" value="&lt;span style=&quot;font-size: 40px;&quot;&gt;_ _ A _ _ E&lt;/span&gt;" style="rounded=0;whiteSpace=wrap;html=1;" parent="1" vertex="1">
          <mxGeometry x="859" y="-277" width="484" height="60" as="geometry" />
        </mxCell>
        <mxCell id="Xj7tkq4aOQaog6A-EKB1-90" value="&lt;font style=&quot;font-size: 24px;&quot;&gt;Exemple si A et E sont dans le mot&lt;/font&gt;" style="text;html=1;align=center;verticalAlign=middle;whiteSpace=wrap;rounded=0;fontSize=16;strokeWidth=4;" parent="1" vertex="1">
          <mxGeometry x="820.5" y="-315" width="445" height="30" as="geometry" />
        </mxCell>
        <mxCell id="Xj7tkq4aOQaog6A-EKB1-91" value="&lt;span style=&quot;font-size: 21px;&quot;&gt;- Caractaire non autoriser&amp;nbsp;&lt;/span&gt;&lt;div&gt;&lt;span style=&quot;font-size: 21px;&quot;&gt;-&amp;nbsp; lettre déja utlisé&lt;/span&gt;&lt;/div&gt;" style="rounded=0;whiteSpace=wrap;html=1;align=left;" parent="1" vertex="1">
          <mxGeometry x="1847" y="48" width="536" height="96.5" as="geometry" />
        </mxCell>
        <mxCell id="Xj7tkq4aOQaog6A-EKB1-94" style="edgeStyle=none;curved=1;rounded=0;orthogonalLoop=1;jettySize=auto;html=1;entryX=0.5;entryY=0;entryDx=0;entryDy=0;fontSize=12;startSize=8;endSize=8;" parent="1" edge="1">
          <mxGeometry relative="1" as="geometry">
            <mxPoint x="567" y="610" as="sourcePoint" />
            <mxPoint x="636" y="871" as="targetPoint" />
          </mxGeometry>
        </mxCell>
        <mxCell id="Xj7tkq4aOQaog6A-EKB1-95" value="&lt;font style=&quot;font-size: 25px;&quot;&gt;Zone d affichage d erreuer de syntaxe ou redandance&lt;/font&gt;" style="text;html=1;align=center;verticalAlign=middle;whiteSpace=wrap;rounded=0;fontSize=16;" parent="1" vertex="1">
          <mxGeometry x="1847" y="-157" width="408" height="30" as="geometry" />
        </mxCell>
        <mxCell id="Xj7tkq4aOQaog6A-EKB1-96" value="&lt;span style=&quot;font-size: 39px;&quot;&gt;Lien support&lt;/span&gt;" style="shape=step;perimeter=stepPerimeter;whiteSpace=wrap;html=1;fixedSize=1;" parent="1" vertex="1">
          <mxGeometry x="696" y="716" width="348" height="64" as="geometry" />
        </mxCell>
        <mxCell id="Xj7tkq4aOQaog6A-EKB1-97" value="&lt;span style=&quot;font-size: 39px;&quot;&gt;Recommencer&lt;/span&gt;" style="shape=step;perimeter=stepPerimeter;whiteSpace=wrap;html=1;fixedSize=1;" parent="1" vertex="1">
          <mxGeometry x="698" y="630" width="348" height="64" as="geometry" />
        </mxCell>
      </root>
    </mxGraphModel>
  </diagram>
</mxfile>
